[img]http://img842.imageshack.us/img842/5593/mortalkombatannihilatio.jpg[/img]
 
http://www.imdb.com/title/tt0119707/

Source: Mortal Kombat Annihilation 1997 BluRay 720p x264 LKRG Thanks!

Subs: Danish, Dutch, English, Hebrew, Indonesian, Korean, Swedish, Turkish, Vietnamese.

Sample and Screens included.

General
Complete name                            : Mortal Kombat Annihilation 1997 720p BRRip x264 MP4 AAC-CC.mp4
Format                                   : MPEG-4
Format profile                           : Base Media
Codec ID                                 : isom
File size                                : 2.66 GiB
Duration                                 : 1h 35mn
Overall bit rate mode                    : Variable
Overall bit rate                         : 3 981 Kbps
Encoded date                             : UTC 2013-04-30 19:04:50
Tagged date                              : UTC 2013-04-30 19:04:50
Writing application                      : Yamb 2.1.0.0 

Video
ID                                       : 1
Format                                   : AVC
Format/Info                              : Advanced Video Codec
Format profile                           : High@L4.1
Format settings, CABAC                   : Yes
Format settings, ReFrames                : 5 frames
Codec ID                                 : avc1
Codec ID/Info                            : Advanced Video Coding
Duration                                 : 1h 34mn
Bit rate                                 : 3 634 Kbps
Nominal bit rate                         : 3 833 Kbps
Maximum bit rate                         : 13.7 Mbps
Width                                    : 1 280 pixels
Height                                   : 688 pixels
Display aspect ratio                     : 1.85:1
Frame rate mode                          : Variable
Frame rate                               : 23.976 fps
Minimum frame rate                       : 19.048 fps
Maximum frame rate                       : 24.390 fps
Color space                              : YUV
Chroma subsampling                       : 4:2:0
Bit depth                                : 8 bits
Scan type                                : Progressive
Bits/(Pixel*Frame)                       : 0.172
Stream size                              : 2.40 GiB (90%)
Writing library                          : x264 core 112
Encoding settings                        : cabac=1 / ref=5 / deblock=1:0:0 / analyse=0x3:0x113 / me=hex / subme=7 / psy=1 / psy_rd=1.00:0.00 / mixed_ref=1 / me_range=16 / chroma_me=1 / trellis=1 / 8x8dct=1 / cqm=0 / deadzone=21,11 / fast_pskip=1 / chroma_qp_offset=-2 / threads=3 / sliced_threads=0 / nr=0 / decimate=1 / interlaced=0 / constrained_intra=0 / bframes=5 / b_pyramid=2 / b_adapt=2 / b_bias=0 / direct=1 / weightb=1 / open_gop=0 / weightp=2 / keyint=240 / keyint_min=24 / scenecut=40 / intra_refresh=0 / rc_lookahead=50 / rc=abr / mbtree=1 / bitrate=3833 / ratetol=1.0 / qcomp=0.60 / qpmin=3 / qpmax=51 / qpstep=4 / ip_ratio=1.40 / aq=1:1.00
Encoded date                             : UTC 2013-04-30 20:19:37
Tagged date                              : UTC 2013-04-30 19:07:46
Color primaries                          : BT.709
Transfer characteristics                 : BT.709
Matrix coefficients                      : BT.709

Audio
ID                                       : 2
Format                                   : AAC
Format/Info                              : Advanced Audio Codec
Format profile                           : LC
Codec ID                                 : 40
Duration                                 : 1h 35mn
Bit rate mode                            : Variable
Bit rate                                 : 384 Kbps
Maximum bit rate                         : 679 Kbps
Channel(s)                               : 6 channels
Channel positions                        : Front: L C R, Side: L R, LFE
Sampling rate                            : 48.0 KHz
Compression mode                         : Lossy
Delay relative to video                  : 83ms
Stream size                              : 260 MiB (10%)
Encoded date                             : UTC 2013-04-30 19:07:05
Tagged date                              : UTC 2013-04-30 19:07:46

Enjoy...

Requested by aartje80

Coming soon: Borat, Immortal, The Duellist, The Secret in Their Eyes and more..

[img]http://img689.imageshack.us/img689/4760/mortalkombatannihilatioc.png[/img]
[img]http://img809.imageshack.us/img809/2641/mortalkombatannihilatio.png[/img]
[img]http://img825.imageshack.us/img825/2641/mortalkombatannihilatio.png[/img]
[img]http://img51.imageshack.us/img51/2641/mortalkombatannihilatio.png[/img]
[img]http://img716.imageshack.us/img716/4217/mortalkombatannihilatioa.png[/img]
[img]http://img844.imageshack.us/img844/4804/mortalkombatannihilatiou.png[/img]